<?xml version="1.0" encoding="iso-8859-1"?>
<!-- Generator: Adobe Illustrator 19.0.0, SVG Export Plug-In . SVG Version: 6.00 Build 0)  -->
<svg xmlns="http://www.w3.org/2000/svg" xmlns:xlink="http://www.w3.org/1999/xlink" version="1.1" id="Layer_1" x="0px" y="0px" viewBox="0 0 512 512" style="enable-background:new 0 0 512 512;" xml:space="preserve">
<rect style="fill:#41479B;" width="512" height="512"/>
<g>
	<path style="fill:#F5F5F5;" d="M229.837,124.013l-4.582,13.74l-14.483,0.112c-0.794,0.006-1.123,1.019-0.485,1.491l11.651,8.604   l-4.369,13.809c-0.24,0.757,0.622,1.383,1.268,0.922l11.783-8.422l11.783,8.422c0.646,0.462,1.508-0.165,1.268-0.922l-4.369-13.809   l11.651-8.604c0.639-0.472,0.31-1.485-0.485-1.491l-14.483-0.112l-4.582-13.74C231.153,123.26,230.088,123.26,229.837,124.013z"/>
	<path style="fill:#F5F5F5;" d="M280.871,124.013l-4.582,13.74l-14.483,0.112c-0.794,0.006-1.123,1.019-0.484,1.491l11.651,8.604   l-4.369,13.809c-0.24,0.757,0.622,1.383,1.268,0.922l11.783-8.422l11.783,8.422c0.646,0.462,1.508-0.165,1.268-0.922l-4.369-13.809   l11.651-8.604c0.639-0.472,0.31-1.485-0.484-1.491l-14.483-0.112l-4.582-13.74C282.188,123.26,281.122,123.26,280.871,124.013z"/>
	<path style="fill:#F5F5F5;" d="M179.492,132.427l-4.582,13.74l-14.483,0.112c-0.794,0.006-1.123,1.019-0.484,1.491l11.651,8.604   l-4.369,13.809c-0.24,0.757,0.622,1.383,1.268,0.922l11.783-8.422l11.783,8.422c0.646,0.462,1.508-0.165,1.268-0.922l-4.369-13.809   l11.651-8.604c0.639-0.472,0.31-1.485-0.485-1.491l-14.483-0.112l-4.582-13.74C180.809,131.674,179.743,131.674,179.492,132.427z"/>
	<path style="fill:#F5F5F5;" d="M131.859,149.741l-4.582,13.74l-14.483,0.112c-0.794,0.006-1.123,1.019-0.485,1.491l11.651,8.604   l-4.369,13.809c-0.24,0.757,0.622,1.383,1.268,0.922l11.783-8.422l11.783,8.422c0.646,0.462,1.508-0.165,1.268-0.922l-4.369-13.809   l11.651-8.604c0.639-0.472,0.31-1.485-0.485-1.491l-14.483-0.112l-4.582-13.74C133.176,148.987,132.11,148.987,131.859,149.741z"/>
	<path style="fill:#F5F5F5;" d="M332.647,132.427l4.582,13.74l14.483,0.112c0.794,0.006,1.123,1.019,0.484,1.491l-11.651,8.604   l4.369,13.809c0.24,0.757-0.622,1.383-1.268,0.922l-11.783-8.422l-11.783,8.422c-0.646,0.462-1.508-0.165-1.268-0.922l4.369-13.809   l-11.651-8.604c-0.639-0.472-0.31-1.485,0.484-1.491l14.483-0.112l4.582-13.74C331.33,131.674,332.396,131.674,332.647,132.427z"/>
	<path style="fill:#F5F5F5;" d="M380.28,149.741l4.582,13.74l14.483,0.112c0.794,0.006,1.123,1.019,0.484,1.491l-11.651,8.604   l4.369,13.809c0.24,0.757-0.622,1.383-1.268,0.922l-11.783-8.422l-11.783,8.422c-0.646,0.462-1.508-0.165-1.268-0.922l4.369-13.809   l-11.651-8.604c-0.639-0.472-0.31-1.485,0.484-1.491l14.483-0.112l4.582-13.74C378.963,148.987,380.029,148.987,380.28,149.741z"/>
	<path style="fill:#F5F5F5;" d="M229.837,124.013l-4.582,13.74l-14.483,0.112c-0.794,0.006-1.123,1.019-0.485,1.491l11.651,8.604   l-4.369,13.809c-0.24,0.757,0.622,1.383,1.268,0.922l11.783-8.422l11.783,8.422c0.646,0.462,1.508-0.165,1.268-0.922l-4.369-13.809   l11.651-8.604c0.639-0.472,0.31-1.485-0.485-1.491l-14.483-0.112l-4.582-13.74C231.153,123.26,230.088,123.26,229.837,124.013z"/>
	<path style="fill:#F5F5F5;" d="M280.871,124.013l-4.582,13.74l-14.483,0.112c-0.794,0.006-1.123,1.019-0.484,1.491l11.651,8.604   l-4.369,13.809c-0.24,0.757,0.622,1.383,1.268,0.922l11.783-8.422l11.783,8.422c0.646,0.462,1.508-0.165,1.268-0.922l-4.369-13.809   l11.651-8.604c0.639-0.472,0.31-1.485-0.484-1.491l-14.483-0.112l-4.582-13.74C282.188,123.26,281.122,123.26,280.871,124.013z"/>
	<path style="fill:#F5F5F5;" d="M179.492,132.427l-4.582,13.74l-14.483,0.112c-0.794,0.006-1.123,1.019-0.484,1.491l11.651,8.604   l-4.369,13.809c-0.24,0.757,0.622,1.383,1.268,0.922l11.783-8.422l11.783,8.422c0.646,0.462,1.508-0.165,1.268-0.922l-4.369-13.809   l11.651-8.604c0.639-0.472,0.31-1.485-0.485-1.491l-14.483-0.112l-4.582-13.74C180.809,131.674,179.743,131.674,179.492,132.427z"/>
	<path style="fill:#F5F5F5;" d="M131.859,149.741l-4.582,13.74l-14.483,0.112c-0.794,0.006-1.123,1.019-0.485,1.491l11.651,8.604   l-4.369,13.809c-0.24,0.757,0.622,1.383,1.268,0.922l11.783-8.422l11.783,8.422c0.646,0.462,1.508-0.165,1.268-0.922l-4.369-13.809   l11.651-8.604c0.639-0.472,0.31-1.485-0.485-1.491l-14.483-0.112l-4.582-13.74C133.176,148.987,132.11,148.987,131.859,149.741z"/>
	<path style="fill:#F5F5F5;" d="M332.647,132.427l4.582,13.74l14.483,0.112c0.794,0.006,1.123,1.019,0.484,1.491l-11.651,8.604   l4.369,13.809c0.24,0.757-0.622,1.383-1.268,0.922l-11.783-8.422l-11.783,8.422c-0.646,0.462-1.508-0.165-1.268-0.922l4.369-13.809   l-11.651-8.604c-0.639-0.472-0.31-1.485,0.484-1.491l14.483-0.112l4.582-13.74C331.33,131.674,332.396,131.674,332.647,132.427z"/>
	<path style="fill:#F5F5F5;" d="M380.28,149.741l4.582,13.74l14.483,0.112c0.794,0.006,1.123,1.019,0.484,1.491l-11.651,8.604   l4.369,13.809c0.24,0.757-0.622,1.383-1.268,0.922l-11.783-8.422l-11.783,8.422c-0.646,0.462-1.508-0.165-1.268-0.922l4.369-13.809   l-11.651-8.604c-0.639-0.472-0.31-1.485,0.484-1.491l14.483-0.112l4.582-13.74C378.963,148.987,380.029,148.987,380.28,149.741z"/>
</g>

</svg>
